<?xml version="1.0" encoding="UTF-8" standalone="no"?><svg xmlns="http://www.w3.org/2000/svg" xmlns:xlink="http://www.w3.org/1999/xlink" clip-rule="evenodd" stroke-miterlimit="10" viewBox="0 0 1024 768"><desc>SVG generated by Keynote</desc><defs></defs><g transform="matrix(1.00, 0.00, -0.00, -1.00, 0.0, 768.0)"><path d="M 0.0 768.0 L 1024.0 768.0 L 1024.0 0.0 L 0.0 0.0 Z M 0.0 768.0 " fill="#000000"></path><text xml:space="preserve" font-family="Helvetica-Light,Helvetica" font-size="80.0" fill="#FEFFFF" transform="matrix(1.00, 0.00, -0.00, -1.00, 148.4, 497.4)">W</text><text xml:space="preserve" font-family="Helvetica-Light,Helvetica" font-size="80.0" fill="#FEFFFF" transform="matrix(1.00, 0.00, -0.00, -1.00, 219.5, 497.4)">h</text><text xml:space="preserve" font-family="Helvetica-Light,Helvetica" font-size="80.0" fill="#FEFFFF" transform="matrix(1.00, 0.00, -0.00, -1.00, 264.0, 497.4)">o</text><text xml:space="preserve" font-family="Helvetica-Light,Helvetica" font-size="80.0" fill="#FEFFFF" transform="matrix(1.00, 0.00, -0.00, -1.00, 308.4, 497.4)">’</text><text xml:space="preserve" font-family="Helvetica-Light,Helvetica" font-size="80.0" fill="#FEFFFF" transform="matrix(1.00, 0.00, -0.00, -1.00, 320.3, 497.4)">s</text><text xml:space="preserve" font-family="Helvetica-Light,Helvetica" font-size="80.0" fill="#FEFFFF" transform="matrix(1.00, 0.00, -0.00, -1.00, 360.3, 497.4)"> </text><text xml:space="preserve" font-family="Helvetica-Light,Helvetica" font-size="80.0" fill="#FEFFFF" transform="matrix(1.00, 0.00, -0.00, -1.00, 382.5, 497.4)">H</text><text xml:space="preserve" font-family="Helvetica-Light,Helvetica" font-size="80.0" fill="#FEFFFF" transform="matrix(1.00, 0.00, -0.00, -1.00, 440.3, 497.4)">i</text><text xml:space="preserve" font-family="Helvetica-Light,Helvetica" font-size="80.0" fill="#FEFFFF" transform="matrix(1.00, 0.00, -0.00, -1.00, 458.0, 497.4)">r</text><text xml:space="preserve" font-family="Helvetica-Light,Helvetica" font-size="80.0" fill="#FEFFFF" transform="matrix(1.00, 0.00, -0.00, -1.00, 484.7, 497.4)">i</text><text xml:space="preserve" font-family="Helvetica-Light,Helvetica" font-size="80.0" fill="#FEFFFF" transform="matrix(1.00, 0.00, -0.00, -1.00, 502.4, 497.4)">n</text><text xml:space="preserve" font-family="Helvetica-Light,Helvetica" font-size="80.0" fill="#FEFFFF" transform="matrix(1.00, 0.00, -0.00, -1.00, 546.9, 497.4)">g</text><text xml:space="preserve" font-family="Helvetica-Light,Helvetica" font-size="80.0" fill="#FEFFFF" transform="matrix(1.00, 0.00, -0.00, -1.00, 595.8, 497.4)"> </text><text xml:space="preserve" font-family="Helvetica-Light,Helvetica" font-size="80.0" fill="#FEFFFF" transform="matrix(1.00, 0.00, -0.00, -1.00, 618.0, 497.4)">P</text><text xml:space="preserve" font-family="Helvetica-Light,Helvetica" font-size="80.0" fill="#FEFFFF" transform="matrix(1.00, 0.00, -0.00, -1.00, 666.9, 497.4)">h</text><text xml:space="preserve" font-family="Helvetica-Light,Helvetica" font-size="80.0" fill="#FEFFFF" transform="matrix(1.00, 0.00, -0.00, -1.00, 711.4, 497.4)">y</text><text xml:space="preserve" font-family="Helvetica-Light,Helvetica" font-size="80.0" fill="#FEFFFF" transform="matrix(1.00, 0.00, -0.00, -1.00, 751.4, 497.4)">s</text><text xml:space="preserve" font-family="Helvetica-Light,Helvetica" font-size="80.0" fill="#FEFFFF" transform="matrix(1.00, 0.00, -0.00, -1.00, 791.4, 497.4)">i</text><text xml:space="preserve" font-family="Helvetica-Light,Helvetica" font-size="80.0" fill="#FEFFFF" transform="matrix(1.00, 0.00, -0.00, -1.00, 809.2, 497.4)">c</text><text xml:space="preserve" font-family="Helvetica-Light,Helvetica" font-size="80.0" fill="#FEFFFF" transform="matrix(1.00, 0.00, -0.00, -1.00, 853.6, 497.4)">s</text><text xml:space="preserve" font-family="Helvetica-Light,Helvetica" font-size="80.0" fill="#FEFFFF" transform="matrix(1.00, 0.00, -0.00, -1.00, 893.6, 497.4)"> </text><text xml:space="preserve" font-family="Helvetica-Light,Helvetica" font-size="80.0" fill="#FEFFFF" transform="matrix(1.00, 0.00, -0.00, -1.00, 315.0, 401.4)">B</text><text xml:space="preserve" font-family="Helvetica-Light,Helvetica" font-size="80.0" fill="#FEFFFF" transform="matrix(1.00, 0.00, -0.00, -1.00, 368.4, 401.4)">a</text><text xml:space="preserve" font-family="Helvetica-Light,Helvetica" font-size="80.0" fill="#FEFFFF" transform="matrix(1.00, 0.00, -0.00, -1.00, 412.8, 401.4)">c</text><text xml:space="preserve" font-family="Helvetica-Light,Helvetica" font-size="80.0" fill="#FEFFFF" transform="matrix(1.00, 0.00, -0.00, -1.00, 457.3, 401.4)">h</text><text xml:space="preserve" font-family="Helvetica-Light,Helvetica" font-size="80.0" fill="#FEFFFF" transform="matrix(1.00, 0.00, -0.00, -1.00, 501.8, 401.4)">e</text><text xml:space="preserve" font-family="Helvetica-Light,Helvetica" font-size="80.0" fill="#FEFFFF" transform="matrix(1.00, 0.00, -0.00, -1.00, 546.3, 401.4)">l</text><text xml:space="preserve" font-family="Helvetica-Light,Helvetica" font-size="80.0" fill="#FEFFFF" transform="matrix(1.00, 0.00, -0.00, -1.00, 564.0, 401.4)">o</text><text xml:space="preserve" font-family="Helvetica-Light,Helvetica" font-size="80.0" fill="#FEFFFF" transform="matrix(1.00, 0.00, -0.00, -1.00, 608.5, 401.4)">r</text><text xml:space="preserve" font-family="Helvetica-Light,Helvetica" font-size="80.0" fill="#FEFFFF" transform="matrix(1.00, 0.00, -0.00, -1.00, 635.2, 401.4)">’</text><text xml:space="preserve" font-family="Helvetica-Light,Helvetica" font-size="80.0" fill="#FEFFFF" transform="matrix(1.00, 0.00, -0.00, -1.00, 647.0, 401.4)">s</text><text xml:space="preserve" font-family="Helvetica-Light,Helvetica" font-size="80.0" fill="#FEFFFF" transform="matrix(1.00, 0.00, -0.00, -1.00, 687.0, 401.4)">?</text><text xml:space="preserve" font-family="Helvetica-Light,Helvetica" font-size="22.7" fill="#FEFFFF" transform="matrix(1.00, 0.00, -0.00, -1.00, 429.9, 347.2)">T</text><text xml:space="preserve" font-family="Helvetica-Light,Helvetica" font-size="22.7" fill="#FEFFFF" transform="matrix(1.00, 0.00, -0.00, -1.00, 440.5, 347.2)">r</text><text xml:space="preserve" font-family="Helvetica-Light,Helvetica" font-size="22.7" fill="#FEFFFF" transform="matrix(1.00, 0.00, -0.00, -1.00, 447.6, 347.2)">e</text><text xml:space="preserve" font-family="Helvetica-Light,Helvetica" font-size="22.7" fill="#FEFFFF" transform="matrix(1.00, 0.00, -0.00, -1.00, 460.3, 347.2)">v</text><text xml:space="preserve" font-family="Helvetica-Light,Helvetica" font-size="22.7" fill="#FEFFFF" transform="matrix(1.00, 0.00, -0.00, -1.00, 471.6, 347.2)">i</text><text xml:space="preserve" font-family="Helvetica-Light,Helvetica" font-size="22.7" fill="#FEFFFF" transform="matrix(1.00, 0.00, -0.00, -1.00, 476.7, 347.2)">n</text><text xml:space="preserve" font-family="Helvetica-Light,Helvetica" font-size="22.7" fill="#FEFFFF" transform="matrix(1.00, 0.00, -0.00, -1.00, 489.3, 347.2)"> </text><text xml:space="preserve" font-family="Helvetica-Light,Helvetica" font-size="22.7" fill="#FEFFFF" transform="matrix(1.00, 0.00, -0.00, -1.00, 495.6, 347.2)">F</text><text xml:space="preserve" font-family="Helvetica-Light,Helvetica" font-size="22.7" fill="#FEFFFF" transform="matrix(1.00, 0.00, -0.00, -1.00, 508.2, 347.2)">l</text><text xml:space="preserve" font-family="Helvetica-Light,Helvetica" font-size="22.7" fill="#FEFFFF" transform="matrix(1.00, 0.00, -0.00, -1.00, 513.3, 347.2)">i</text><text xml:space="preserve" font-family="Helvetica-Light,Helvetica" font-size="22.7" fill="#FEFFFF" transform="matrix(1.00, 0.00, -0.00, -1.00, 518.3, 347.2)">c</text><text xml:space="preserve" font-family="Helvetica-Light,Helvetica" font-size="22.7" fill="#FEFFFF" transform="matrix(1.00, 0.00, -0.00, -1.00, 531.0, 347.2)">k</text><text xml:space="preserve" font-family="Helvetica-Light,Helvetica" font-size="22.7" fill="#FEFFFF" transform="matrix(1.00, 0.00, -0.00, -1.00, 542.3, 347.2)">i</text><text xml:space="preserve" font-family="Helvetica-Light,Helvetica" font-size="22.7" fill="#FEFFFF" transform="matrix(1.00, 0.00, -0.00, -1.00, 547.4, 347.2)">n</text><text xml:space="preserve" font-family="Helvetica-Light,Helvetica" font-size="22.7" fill="#FEFFFF" transform="matrix(1.00, 0.00, -0.00, -1.00, 560.0, 347.2)">g</text><text xml:space="preserve" font-family="Helvetica-Light,Helvetica" font-size="22.7" fill="#FEFFFF" transform="matrix(1.00, 0.00, -0.00, -1.00, 573.9, 347.2)">e</text><text xml:space="preserve" font-family="Helvetica-Light,Helvetica" font-size="22.7" fill="#FEFFFF" transform="matrix(1.00, 0.00, -0.00, -1.00, 586.5, 347.2)">r</text><text xml:space="preserve" font-family="Helvetica-Light,Helvetica" font-size="22.7" fill="#FEFFFF" transform="matrix(1.00, 0.00, -0.00, -1.00, 594.1, 347.2)"> </text><text xml:space="preserve" font-family="Helvetica-Light,Helvetica" font-size="22.7" fill="#FEFFFF" transform="matrix(1.00, 0.00, -0.00, -1.00, 316.1, 321.2)">h</text><text xml:space="preserve" font-family="Helvetica-Light,Helvetica" font-size="22.7" fill="#FEFFFF" transform="matrix(1.00, 0.00, -0.00, -1.00, 328.7, 321.2)">t</text><text xml:space="preserve" font-family="Helvetica-Light,Helvetica" font-size="22.7" fill="#FEFFFF" transform="matrix(1.00, 0.00, -0.00, -1.00, 335.0, 321.2)">t</text><text xml:space="preserve" font-family="Helvetica-Light,Helvetica" font-size="22.7" fill="#FEFFFF" transform="matrix(1.00, 0.00, -0.00, -1.00, 341.3, 321.2)">p</text><text xml:space="preserve" font-family="Helvetica-Light,Helvetica" font-size="22.7" fill="#FEFFFF" transform="matrix(1.00, 0.00, -0.00, -1.00, 355.2, 321.2)">:</text><text xml:space="preserve" font-family="Helvetica-Light,Helvetica" font-size="22.7" fill="#FEFFFF" transform="matrix(1.00, 0.00, -0.00, -1.00, 361.5, 321.2)">/</text><text xml:space="preserve" font-family="Helvetica-Light,Helvetica" font-size="22.7" fill="#FEFFFF" transform="matrix(1.00, 0.00, -0.00, -1.00, 367.8, 321.2)">/</text><text xml:space="preserve" font-family="Helvetica-Light,Helvetica" font-size="22.7" fill="#FEFFFF" transform="matrix(1.00, 0.00, -0.00, -1.00, 374.2, 321.2)">t</text><text xml:space="preserve" font-family="Helvetica-Light,Helvetica" font-size="22.7" fill="#FEFFFF" transform="matrix(1.00, 0.00, -0.00, -1.00, 380.5, 321.2)">r</text><text xml:space="preserve" font-family="Helvetica-Light,Helvetica" font-size="22.7" fill="#FEFFFF" transform="matrix(1.00, 0.00, -0.00, -1.00, 387.6, 321.2)">e</text><text xml:space="preserve" font-family="Helvetica-Light,Helvetica" font-size="22.7" fill="#FEFFFF" transform="matrix(1.00, 0.00, -0.00, -1.00, 400.3, 321.2)">v</text><text xml:space="preserve" font-family="Helvetica-Light,Helvetica" font-size="22.7" fill="#FEFFFF" transform="matrix(1.00, 0.00, -0.00, -1.00, 411.6, 321.2)">i</text><text xml:space="preserve" font-family="Helvetica-Light,Helvetica" font-size="22.7" fill="#FEFFFF" transform="matrix(1.00, 0.00, -0.00, -1.00, 416.7, 321.2)">n</text><text xml:space="preserve" font-family="Helvetica-Light,Helvetica" font-size="22.7" fill="#FEFFFF" transform="matrix(1.00, 0.00, -0.00, -1.00, 429.3, 321.2)">ﬂ</text><text xml:space="preserve" font-family="Helvetica-Light,Helvetica" font-size="22.7" fill="#FEFFFF" transform="matrix(1.00, 0.00, -0.00, -1.00, 440.7, 321.2)">i</text><text xml:space="preserve" font-family="Helvetica-Light,Helvetica" font-size="22.7" fill="#FEFFFF" transform="matrix(1.00, 0.00, -0.00, -1.00, 445.7, 321.2)">c</text><text xml:space="preserve" font-family="Helvetica-Light,Helvetica" font-size="22.7" fill="#FEFFFF" transform="matrix(1.00, 0.00, -0.00, -1.00, 458.3, 321.2)">k</text><text xml:space="preserve" font-family="Helvetica-Light,Helvetica" font-size="22.7" fill="#FEFFFF" transform="matrix(1.00, 0.00, -0.00, -1.00, 469.7, 321.2)">.</text><text xml:space="preserve" font-family="Helvetica-Light,Helvetica" font-size="22.7" fill="#FEFFFF" transform="matrix(1.00, 0.00, -0.00, -1.00, 476.0, 321.2)">g</text><text xml:space="preserve" font-family="Helvetica-Light,Helvetica" font-size="22.7" fill="#FEFFFF" transform="matrix(1.00, 0.00, -0.00, -1.00, 489.9, 321.2)">i</text><text xml:space="preserve" font-family="Helvetica-Light,Helvetica" font-size="22.7" fill="#FEFFFF" transform="matrix(1.00, 0.00, -0.00, -1.00, 494.9, 321.2)">t</text><text xml:space="preserve" font-family="Helvetica-Light,Helvetica" font-size="22.7" fill="#FEFFFF" transform="matrix(1.00, 0.00, -0.00, -1.00, 501.3, 321.2)">h</text><text xml:space="preserve" font-family="Helvetica-Light,Helvetica" font-size="22.7" fill="#FEFFFF" transform="matrix(1.00, 0.00, -0.00, -1.00, 513.9, 321.2)">u</text><text xml:space="preserve" font-family="Helvetica-Light,Helvetica" font-size="22.7" fill="#FEFFFF" transform="matrix(1.00, 0.00, -0.00, -1.00, 526.5, 321.2)">b</text><text xml:space="preserve" font-family="Helvetica-Light,Helvetica" font-size="22.7" fill="#FEFFFF" transform="matrix(1.00, 0.00, -0.00, -1.00, 540.4, 321.2)">.</text><text xml:space="preserve" font-family="Helvetica-Light,Helvetica" font-size="22.7" fill="#FEFFFF" transform="matrix(1.00, 0.00, -0.00, -1.00, 546.7, 321.2)">i</text><text xml:space="preserve" font-family="Helvetica-Light,Helvetica" font-size="22.7" fill="#FEFFFF" transform="matrix(1.00, 0.00, -0.00, -1.00, 551.8, 321.2)">o</text><text xml:space="preserve" font-family="Helvetica-Light,Helvetica" font-size="22.7" fill="#FEFFFF" transform="matrix(1.00, 0.00, -0.00, -1.00, 564.4, 321.2)">/</text><text xml:space="preserve" font-family="Helvetica-Light,Helvetica" font-size="22.7" fill="#FEFFFF" transform="matrix(1.00, 0.00, -0.00, -1.00, 570.7, 321.2)">c</text><text xml:space="preserve" font-family="Helvetica-Light,Helvetica" font-size="22.7" fill="#FEFFFF" transform="matrix(1.00, 0.00, -0.00, -1.00, 583.3, 321.2)">s</text><text xml:space="preserve" font-family="Helvetica-Light,Helvetica" font-size="22.7" fill="#FEFFFF" transform="matrix(1.00, 0.00, -0.00, -1.00, 594.7, 321.2)">5</text><text xml:space="preserve" font-family="Helvetica-Light,Helvetica" font-size="22.7" fill="#FEFFFF" transform="matrix(1.00, 0.00, -0.00, -1.00, 607.3, 321.2)">0</text><text xml:space="preserve" font-family="Helvetica-Light,Helvetica" font-size="22.7" fill="#FEFFFF" transform="matrix(1.00, 0.00, -0.00, -1.00, 620.0, 321.2)">_</text><text xml:space="preserve" font-family="Helvetica-Light,Helvetica" font-size="22.7" fill="#FEFFFF" transform="matrix(1.00, 0.00, -0.00, -1.00, 631.3, 321.2)">p</text><text xml:space="preserve" font-family="Helvetica-Light,Helvetica" font-size="22.7" fill="#FEFFFF" transform="matrix(1.00, 0.00, -0.00, -1.00, 645.2, 321.2)">r</text><text xml:space="preserve" font-family="Helvetica-Light,Helvetica" font-size="22.7" fill="#FEFFFF" transform="matrix(1.00, 0.00, -0.00, -1.00, 652.4, 321.2)">o</text><text xml:space="preserve" font-family="Helvetica-Light,Helvetica" font-size="22.7" fill="#FEFFFF" transform="matrix(1.00, 0.00, -0.00, -1.00, 665.0, 321.2)">j</text><text xml:space="preserve" font-family="Helvetica-Light,Helvetica" font-size="22.7" fill="#FEFFFF" transform="matrix(1.00, 0.00, -0.00, -1.00, 670.0, 321.2)">e</text><text xml:space="preserve" font-family="Helvetica-Light,Helvetica" font-size="22.7" fill="#FEFFFF" transform="matrix(1.00, 0.00, -0.00, -1.00, 682.7, 321.2)">c</text><text xml:space="preserve" font-family="Helvetica-Light,Helvetica" font-size="22.7" fill="#FEFFFF" transform="matrix(1.00, 0.00, -0.00, -1.00, 695.3, 321.2)">t</text><text xml:space="preserve" font-family="Helvetica-Light,Helvetica" font-size="22.7" fill="#FEFFFF" transform="matrix(1.00, 0.00, -0.00, -1.00, 701.6, 321.2)">/</text><text xml:space="preserve" font-family="Helvetica-Light,Helvetica" font-size="22.7" fill="#FEFFFF" transform="matrix(1.00, 0.00, -0.00, -1.00, 707.9, 321.2)"> </text><g><clipPath id="clip0x6000006be900"><path d="M 315.1 318.0 L 707.9 318.0 L 707.9 321.1 L 315.1 321.1 Z M 315.1 318.0 "></path></clipPath><g clip-path="url(#clip0x6000006be900)"><path d="M 216.1 52.5 L 607.9 52.5 " fill="none" stroke="#FEFFFF" stroke-width="1.14" transform="matrix(1.00, 0.00, 0.00, -1.00, 100.0, 372.0)"></path></g></g><text xml:space="preserve" font-family="Helvetica-Light,Helvetica" font-size="22.7" fill="#FEFFFF" transform="matrix(1.00, 0.00, -0.00, -1.00, 436.2, 295.2)">D</text><text xml:space="preserve" font-family="Helvetica-Light,Helvetica" font-size="22.7" fill="#FEFFFF" transform="matrix(1.00, 0.00, -0.00, -1.00, 452.6, 295.2)">e</text><text xml:space="preserve" font-family="Helvetica-Light,Helvetica" font-size="22.7" fill="#FEFFFF" transform="matrix(1.00, 0.00, -0.00, -1.00, 465.3, 295.2)">ﬁ</text><text xml:space="preserve" font-family="Helvetica-Light,Helvetica" font-size="22.7" fill="#FEFFFF" transform="matrix(1.00, 0.00, -0.00, -1.00, 476.6, 295.2)">a</text><text xml:space="preserve" font-family="Helvetica-Light,Helvetica" font-size="22.7" fill="#FEFFFF" transform="matrix(1.00, 0.00, -0.00, -1.00, 489.3, 295.2)">n</text><text xml:space="preserve" font-family="Helvetica-Light,Helvetica" font-size="22.7" fill="#FEFFFF" transform="matrix(1.00, 0.00, -0.00, -1.00, 501.9, 295.2)">c</text><text xml:space="preserve" font-family="Helvetica-Light,Helvetica" font-size="22.7" fill="#FEFFFF" transform="matrix(1.00, 0.00, -0.00, -1.00, 514.5, 295.2)">e</text><text xml:space="preserve" font-family="Helvetica-Light,Helvetica" font-size="22.7" fill="#FEFFFF" transform="matrix(1.00, 0.00, -0.00, -1.00, 527.2, 295.2)">,</text><text xml:space="preserve" font-family="Helvetica-Light,Helvetica" font-size="22.7" fill="#FEFFFF" transform="matrix(1.00, 0.00, -0.00, -1.00, 533.5, 295.2)"> </text><text xml:space="preserve" font-family="Helvetica-Light,Helvetica" font-size="22.7" fill="#FEFFFF" transform="matrix(1.00, 0.00, -0.00, -1.00, 539.8, 295.2)">O</text><text xml:space="preserve" font-family="Helvetica-Light,Helvetica" font-size="22.7" fill="#FEFFFF" transform="matrix(1.00, 0.00, -0.00, -1.00, 557.5, 295.2)">h</text><text xml:space="preserve" font-family="Helvetica-Light,Helvetica" font-size="22.7" fill="#FEFFFF" transform="matrix(1.00, 0.00, -0.00, -1.00, 570.1, 295.2)">i</text><text xml:space="preserve" font-family="Helvetica-Light,Helvetica" font-size="22.7" fill="#FEFFFF" transform="matrix(1.00, 0.00, -0.00, -1.00, 575.1, 295.2)">o</text></g></svg>